<?xml version="1.0" encoding="utf-8"?>
<!-- Generator: Adobe Illustrator 24.0.1, SVG Export Plug-In . SVG Version: 6.00 Build 0)  -->
<svg version="1.1" id="图层_1" xmlns="http://www.w3.org/2000/svg" xmlns:xlink="http://www.w3.org/1999/xlink" x="0px" y="0px"
	 viewBox="0 0 200 200" style="enable-background:new 0 0 200 200;" xml:space="preserve">
<style type="text/css">
	.st0{fill:#FFFFFF;}
</style>
<g>
	<path class="st0" d="M82.3,168.6h95.6c2.7,0,4.8-2.2,4.8-4.8l0-159c0-2.7-2.2-4.8-4.8-4.8L22.1,0c-2.7,0-4.8,2.2-4.8,4.8l0,190.4
		c0,2.7,2.2,4.8,4.8,4.8h155.9c2.7,0,4.8-2.2,4.8-4.8v-4.8c0-2.7-2.2-4.8-4.8-4.8H36.5c-2.7,0-4.8-2.2-4.8-4.8v-7
		c0-2.7,2.2-4.8,4.8-4.8l22.1,0c2.7,0,4.8-2.2,4.8-4.8V133c0-2.7-2.2-4.8-4.8-4.8h-4.8c-2.7,0-4.8,2.2-4.8,4.8v16.8
		c0,2.7-2.2,4.8-4.8,4.8h-7.7c-2.7,0-4.8-2.2-4.8-4.8V19.2c0-2.7,2.2-4.8,4.8-4.8h66.7c2.7,0,4.8,2.2,4.8,4.8v34
		c0,2.7-2.2,4.8-4.8,4.8H83c-2.7,0-4.8,2.2-4.8,4.8v4.8c0,2.7,2.2,4.8,4.8,4.8h20.1c2.7,0,4.8,2.2,4.8,4.8v11.6
		c0,2.7-2.2,4.8-4.8,4.8H83c-2.7,0-4.8,2.2-4.8,4.8v4.8c0,2.7,2.2,4.8,4.8,4.8h64.2c2.7,0,4.8-2.2,4.8-4.8v-4.8
		c0-2.7-2.2-4.8-4.8-4.8h-20.1c-2.7,0-4.8-2.2-4.8-4.8V77.2c0-2.7,2.2-4.8,4.8-4.8h20.1c2.7,0,4.8-2.2,4.8-4.8v-4.8
		c0-2.7-2.2-4.8-4.8-4.8h-20.1c-2.7,0-4.8-2.2-4.8-4.8v-34c0-2.7,2.2-4.8,4.8-4.8h36.4c2.7,0,4.8,2.2,4.8,4.8v130.2
		c0,2.7-2.2,4.8-4.8,4.8H96.7c-2.7,0-4.8-2.2-4.8-4.8v-9.2c0-2.7,2.2-4.8,4.8-4.8h20.8c2.7,0,4.8-2.2,4.8-4.8v-4.8
		c0-2.7-2.2-4.8-4.8-4.8H82.3c-2.7,0-4.8,2.2-4.8,4.8l0,38C77.5,166.4,79.6,168.6,82.3,168.6z"/>
	<path class="st0" d="M58.6,31.9h-4.8c-2.7,0-4.8,2.2-4.8,4.8v16.2c0,2.7,2.2,4.8,4.8,4.8h4.8c2.7,0,4.8-2.2,4.8-4.8V36.7
		C63.4,34,61.2,31.9,58.6,31.9z"/>
	<path class="st0" d="M53.8,108h4.8c2.7,0,4.8-2.2,4.8-4.8v-26c0-2.7-2.2-4.8-4.8-4.8h-4.8c-2.7,0-4.8,2.2-4.8,4.8v26
		C49,105.8,51.1,108,53.8,108z"/>
</g>
</svg>
