<?xml version="1.0" standalone="no"?><!DOCTYPE svg PUBLIC "-//W3C//DTD SVG 1.1//EN" "http://www.w3.org/Graphics/SVG/1.1/DTD/svg11.dtd"><svg t="1626231179427" class="icon" viewBox="0 0 1024 1024" version="1.1" xmlns="http://www.w3.org/2000/svg" p-id="2488" xmlns:xlink="http://www.w3.org/1999/xlink" width="200" height="200"><defs><style type="text/css"></style></defs><path d="M734.534817 233.770208 289.408901 233.770208c-15.376199 0-27.820626 12.443403-27.820626 27.820626 0 15.377222 12.443403 27.820626 27.820626 27.820626l445.124893 0c15.377222 0 27.873838-12.44238 27.873838-27.820626C762.408655 246.213611 749.91204 233.770208 734.534817 233.770208z" p-id="2489"></path><path d="M734.534817 400.745127 289.408901 400.745127c-15.376199 0-27.820626 12.388145-27.820626 27.821649 0 15.322987 12.443403 27.820626 27.820626 27.820626l445.124893 0c15.377222 0 27.820626-12.497639 27.820626-27.820626C762.35442 413.134295 749.91204 400.745127 734.534817 400.745127z" p-id="2490"></path><path d="M734.534817 567.613622 289.408901 567.613622c-15.376199 0-27.820626 12.44238-27.820626 27.820626s12.443403 27.820626 27.820626 27.820626l445.124893 0c15.377222 0 27.820626-12.44238 27.820626-27.820626S749.91204 567.613622 734.534817 567.613622z" p-id="2491"></path><path d="M511.971859 734.535329 289.408901 734.535329c-15.376199 0-27.820626 12.44238-27.820626 27.820626s12.443403 27.874861 27.820626 27.874861l222.562958 0c15.431457 0 27.873838-12.497639 27.873838-27.874861S527.40434 734.535329 511.971859 734.535329z" p-id="2492"></path><path d="M785.121959 66.847477 238.822782 66.847477c-48.794309 0-88.51394 35.917024-88.51394 79.983659l0 730.281445c0 44.121893 39.71963 80.037894 88.51394 80.037894l356.664166 0 55.641251 0 20.320814 0 202.241121-184.906314L873.690134 146.83216C873.690134 102.764502 833.970504 66.847477 785.121959 66.847477zM651.128199 900.31605l0-82.265632c0-15.32401 12.44238-27.820626 27.76639-27.820626l92.64298 0L651.128199 900.31605zM818.049906 734.535329 678.894589 734.535329c-46.02422 0-83.407642 37.437657-83.407642 83.515089l0 83.460854L238.822782 901.511271c-17.822924 0-32.873712-11.192923-32.873712-24.397666L205.949071 146.83216c0-13.20372 15.050788-24.342408 32.873712-24.342408l546.299177 0c17.821901 0 32.927947 11.138688 32.927947 24.342408L818.049906 734.535329z" p-id="2493"></path></svg>